<svg width="413" height="24" viewBox="0 0 413 24" fill="none" xmlns="http://www.w3.org/2000/svg">
<path fill-rule="evenodd" clip-rule="evenodd" d="M175.199 2.27161C155.819 3.05007 136.667 4.00726 117.99 5.05372C91.5507 6.53407 65.1218 8.06547 38.8522 10.4902C30.5832 11.2559 22.1858 11.7408 13.9684 12.6979C8.81008 13.2977 1.97021 14.1526 1.07257 14.3313C0.603062 14.4334 0.398233 14.5867 0.332047 14.6377C-0.133322 14.995 -0.0484095 15.3395 0.214266 15.6075C0.319749 15.7223 0.586486 16.0032 1.32694 16.0415C50.8464 18.6576 101.483 13.553 151.062 13.017C237.042 12.0981 325.627 15.748 410.924 23.7112C411.669 23.775 412.393 23.4559 412.496 22.9837C412.62 22.5243 412.083 22.0776 411.338 22.0138C325.896 14.0378 237.166 10.3752 151.021 11.3068C104.815 11.8045 57.6966 16.2839 11.4265 14.7525C12.4896 14.6249 13.5321 14.4972 14.4835 14.3824C22.6678 13.4253 31.0299 12.9531 39.2659 12.1874C65.4797 9.76272 91.8548 8.23132 118.259 6.76373C151.021 4.92605 185.21 3.3436 219.668 2.60342C231.995 2.71828 244.281 2.83318 256.566 2.97356C283.144 3.27984 309.846 4.17316 336.362 5.37276C344.345 5.74284 352.329 6.12566 360.313 6.45746C362.96 6.57232 369.786 6.90407 370.737 6.87854C371.916 6.85302 372.143 6.24052 372.164 6.13842C372.226 5.90871 372.185 5.58965 371.606 5.32166C371.544 5.28337 371.171 5.15568 370.344 5.07911C322.132 0.561487 270.652 -0.191331 219.709 0.893408C165.975 0.421228 112.033 0.216948 58.435 0C57.6677 0 57.041 0.382905 57.0348 0.855086C57.0306 1.32727 57.649 1.71018 58.4163 1.72295C97.2261 1.87609 136.232 2.02914 175.199 2.27161Z" fill="white"/>
</svg>
