<svg width="99" height="13" viewBox="0 0 99 13" fill="none" xmlns="http://www.w3.org/2000/svg">
<path fill-rule="evenodd" clip-rule="evenodd" d="M26.3869 7.65566C22.1336 8.83045 17.2229 9.99959 12.4989 10.2915C8.46115 10.5407 4.56106 10.1537 1.36879 8.50706C0.918789 8.27521 0.355272 8.4346 0.111909 8.86366C-0.131824 9.29237 0.0358571 9.82923 0.485855 10.0614C3.96824 11.8572 8.21445 12.3269 12.6187 12.0548C17.4277 11.7579 22.427 10.581 26.7656 9.3892C27.2691 10.3608 28.3115 11.2666 30.1479 11.9349C32.9684 12.9616 36.8195 12.9489 40.8766 12.3704C46.7607 11.5317 53.0903 9.53164 57.16 8.11051C57.3269 8.05255 57.5755 7.96031 57.8797 7.83873C57.9724 8.03383 58.0763 8.22609 58.1913 8.41482C59.1892 10.0597 60.9551 11.3896 62.7543 11.8646C74.1656 14.8765 87.4838 11.2677 98.3275 8.33069C98.8172 8.19745 99.1029 7.70832 98.9656 7.23933C98.8246 6.77033 98.3127 6.49784 97.8193 6.63108C87.2798 9.48606 74.34 13.0882 63.2477 10.1614C61.8825 9.80095 60.5544 8.77885 59.7976 7.53054C59.7123 7.39129 59.6381 7.24886 59.5676 7.10431C61.0627 6.39852 62.8211 5.41458 63.7671 4.36137C64.7391 3.28165 64.9802 2.12913 64.1344 1.04058C63.4072 0.110003 62.3054 0.0308343 61.1591 0.513262C59.9237 1.02997 58.6513 2.23797 58.2395 2.80486C57.4679 3.86373 57.223 5.01238 57.364 6.13239C57.0004 6.27871 56.7051 6.38755 56.523 6.45117C52.5424 7.84085 46.3556 9.80238 40.602 10.6227C36.9 11.1507 33.3835 11.221 30.8097 10.2844C29.712 9.88472 28.9867 9.4182 28.5931 8.87675C29.3699 8.65551 30.1189 8.43779 30.8345 8.22998C32.2498 7.81894 35.1965 7.1386 37.3018 5.92599C38.976 4.96184 40.1112 3.65028 40.0452 2.00614C40.0115 1.16145 39.4984 0.59772 38.6818 0.281757C37.4617 -0.190068 35.3516 0.0382411 34.5658 0.197283C32.1827 0.67865 29.0019 2.67128 27.4282 4.9166C26.8001 5.81254 26.4266 6.74982 26.3869 7.65566ZM28.3445 7.1036C29.0178 6.91063 29.6686 6.72119 30.2937 6.53953C31.6147 6.15571 34.3763 5.54604 36.3421 4.41366C37.383 3.81425 38.233 3.0961 38.1918 2.07363C38.1885 1.99411 38.1057 1.9715 38.0326 1.93898C37.9195 1.88915 37.79 1.85486 37.652 1.828C36.7183 1.64634 35.464 1.82198 34.9505 1.92589C32.951 2.32986 30.291 4.01394 28.9707 5.89806C28.6918 6.29602 28.4695 6.7014 28.3445 7.1036ZM59.1966 5.3188C60.0684 4.89151 60.981 4.37479 61.7007 3.81249C62.0828 3.51384 62.4056 3.20672 62.6096 2.88793C62.7803 2.62428 62.8471 2.35424 62.643 2.09341C62.5614 1.98774 62.439 1.98563 62.3129 2.00542C62.1793 2.02663 62.042 2.07186 61.9048 2.13017C60.9996 2.50975 60.0647 3.3965 59.7642 3.81249C59.4118 4.29491 59.2374 4.80527 59.1966 5.3188Z" fill="black"/>
</svg>
