<svg width="37" height="36" viewBox="0 0 37 36" fill="none" xmlns="http://www.w3.org/2000/svg">
<path d="M27.9507 2.78784L26.602 4.13656C26.3927 4.35694 26.0022 4.37838 25.7606 4.13656C25.5277 3.90388 25.5277 3.52784 25.7606 3.29516L27.1093 1.94645C27.3419 1.71369 27.718 1.71369 27.9566 1.94645C28.1894 2.17919 28.1894 2.55517 27.9507 2.78784Z" fill="#0C4DB0"/>
<path d="M29.8955 6.92329C29.8835 7.24557 29.621 7.49624 29.2987 7.49624H29.2748L27.3711 7.41858C27.0429 7.40073 26.7863 7.12617 26.7983 6.79202C26.8102 6.47571 27.0727 6.22504 27.395 6.22504H27.4189L29.3226 6.30269C29.6568 6.31464 29.9074 6.59511 29.8955 6.92329Z" fill="#0C4DB0"/>
<path d="M23.5934 0.573766L23.671 2.47751C23.6889 2.8057 23.4323 3.08616 23.104 3.09811H23.0742C22.7579 3.09811 22.4954 2.84751 22.4834 2.52523L22.3998 0.621554C22.3879 0.2933 22.6446 0.0128342 22.9728 0.000884331C23.3069 -0.0170375 23.5815 0.239609 23.5934 0.573766Z" fill="#0C4DB0"/>
<path d="M19.7907 15.9361L13.9611 10.1071L14.7515 5.24039L24.6593 15.1482L19.7907 15.9361ZM26.8629 14.7913L26.1122 14.9128L14.9873 3.78852L15.1094 3.03689C15.1874 2.55663 15.7764 2.36652 16.1204 2.71056L27.1896 13.7802C27.5337 14.1244 27.3434 14.7136 26.8629 14.7913ZM24.4367 5.4652C25.5912 6.6197 25.717 8.41935 24.816 9.71838L20.1788 5.08114C21.4784 4.18131 23.2804 4.30953 24.4367 5.4652ZM10.4049 21.3409C9.89553 21.8497 9.06564 21.8508 8.55628 21.3409C8.04634 20.831 8.04634 20.0017 8.55628 19.4917L9.48525 18.5628C9.54502 18.6225 11.4526 20.5296 11.3344 20.4114L10.4049 21.3409ZM13.3818 20.7709C11.978 19.3674 10.6993 18.0889 9.12567 16.5154C8.8063 16.1961 8.8063 15.6756 9.12567 15.3557L13.3241 11.1579L18.7393 16.5731C13.0292 22.2824 20.1834 15.1292 14.5409 20.7709C14.2309 21.0804 13.6924 21.0816 13.3818 20.7709ZM23.0683 23.83C22.6964 23.458 24.6214 25.3867 18.121 18.8768C17.6555 19.3422 16.3247 20.6731 16.265 20.7328L21.2182 25.68C21.7255 26.1933 22.555 26.1933 23.0683 25.68C23.5815 25.1727 23.5815 24.3373 23.0683 23.83Z" fill="#0C4DB0"/>
<path d="M0 31.1212V32.266C0 33.8619 1.2952 35.1571 2.89108 35.1571H34.1089C35.7048 35.1571 37 33.8619 37 32.266V31.1212C35.9658 31.1212 42.3827 31.1212 0 31.1212Z" fill="#0C4DB0"/>
<path d="M33.8105 8.26016H26.5776C26.506 9.00613 26.2494 9.7462 25.7958 10.3966L25.6764 10.5757L26.3449 11.244H32.5811V26.9452H23.3491C22.6195 27.3518 21.6939 27.3664 20.9381 26.9452H4.41942V11.244H11.5449L12.7623 10.0267L13.0487 8.26016H3.19003C2.22326 8.26016 1.43555 9.04197 1.43555 10.0087V29.9291H35.565V10.0087C35.565 9.04197 34.7772 8.26016 33.8105 8.26016Z" fill="#0C4DB0"/>
</svg>
