<svg width="20" height="19" viewBox="0 0 20 19" fill="none" xmlns="http://www.w3.org/2000/svg">
<path d="M12.2519 17.3871L12.261 17.3934C13.0481 17.8946 13.9825 18.1122 14.91 18.0103C15.8374 17.9085 16.7024 17.4932 17.3619 16.8332L17.9349 16.2603C18.0618 16.1334 18.1626 15.9828 18.2313 15.8169C18.3 15.6511 18.3354 15.4734 18.3354 15.2939C18.3354 15.1144 18.3 14.9366 18.2313 14.7708C18.1626 14.605 18.0618 14.4543 17.9349 14.3274L15.5183 11.9127C15.3914 11.7857 15.2408 11.685 15.0749 11.6163C14.9091 11.5476 14.7314 11.5122 14.5519 11.5122C14.3724 11.5122 14.1946 11.5476 14.0288 11.6163C13.863 11.685 13.7123 11.7857 13.5854 11.9127C13.3292 12.1688 12.9817 12.3127 12.6194 12.3127C12.2571 12.3127 11.9097 12.1688 11.6535 11.9127L7.7895 8.04781C7.53336 7.79159 7.38946 7.44412 7.38946 7.08182C7.38946 6.71952 7.53336 6.37206 7.7895 6.11583C7.91647 5.98895 8.01719 5.83829 8.08591 5.67246C8.15463 5.50663 8.19 5.32889 8.19 5.14939C8.19 4.96989 8.15463 4.79215 8.08591 4.62632C8.01719 4.46049 7.91647 4.30983 7.7895 4.18295L5.37385 1.7682C5.11763 1.51206 4.77016 1.36816 4.40786 1.36816C4.04556 1.36816 3.69809 1.51206 3.44187 1.7682L2.86802 2.34115C2.20817 3.00079 1.79311 3.8658 1.69142 4.79327C1.58973 5.72073 1.80749 6.65513 2.30874 7.44208L2.3142 7.45118C4.96139 11.3678 8.33483 14.7406 12.2519 17.3871V17.3871Z" stroke="#001125" stroke-width="1.4" stroke-linecap="round" stroke-linejoin="round"/>
</svg>
