<svg width="20" height="21" viewBox="0 0 20 21" fill="none" xmlns="http://www.w3.org/2000/svg">
<path d="M16.8612 9.65797C16.8612 15.0368 11.352 18.3506 10.2071 18.9817C10.1437 19.0167 10.0724 19.0351 9.99998 19.0351C9.92755 19.0351 9.8563 19.0167 9.79287 18.9817C8.64712 18.3506 3.13965 15.0368 3.13965 9.65797C3.13965 5.36999 5.71243 2.36841 10.0004 2.36841C14.2884 2.36841 16.8612 5.36999 16.8612 9.65797Z" stroke="#001125" stroke-width="1.4" stroke-linecap="round" stroke-linejoin="round"/>
<path d="M6.57031 9.22921C6.57031 10.139 6.93173 11.0115 7.57505 11.6549C8.21837 12.2982 9.0909 12.6596 10.0007 12.6596C10.9105 12.6596 11.783 12.2982 12.4263 11.6549C13.0697 11.0115 13.4311 10.139 13.4311 9.22921C13.4311 8.31942 13.0697 7.44688 12.4263 6.80356C11.783 6.16024 10.9105 5.79883 10.0007 5.79883C9.0909 5.79883 8.21837 6.16024 7.57505 6.80356C6.93173 7.44688 6.57031 8.31942 6.57031 9.22921V9.22921Z" stroke="#001125" stroke-width="1.4" stroke-linecap="round" stroke-linejoin="round"/>
</svg>
