<svg width="20" height="21" viewBox="0 0 20 21" fill="none" xmlns="http://www.w3.org/2000/svg">
<path d="M18.3337 5.95142V14.2847C18.3337 14.8373 18.1142 15.3672 17.7235 15.7579C17.3328 16.1486 16.8029 16.3681 16.2503 16.3681H3.75033C3.19779 16.3681 2.66789 16.1486 2.27719 15.7579C1.88649 15.3672 1.66699 14.8373 1.66699 14.2847V5.95142" stroke="#001125" stroke-width="1.4" stroke-linecap="round" stroke-linejoin="round"/>
<path d="M18.3337 5.9515C18.3337 5.39896 18.1142 4.86906 17.7235 4.47836C17.3328 4.08766 16.8029 3.86816 16.2503 3.86816H3.75033C3.19779 3.86816 2.66789 4.08766 2.27719 4.47836C1.88649 4.86906 1.66699 5.39896 1.66699 5.9515L8.89616 10.4654C9.22727 10.6723 9.60987 10.7821 10.0003 10.7821C10.3908 10.7821 10.7734 10.6723 11.1045 10.4654L18.3337 5.9515Z" stroke="#001125" stroke-width="1.4" stroke-linecap="round" stroke-linejoin="round"/>
</svg>
